<svg width="164" height="34" viewBox="0 0 164 34" fill="none" xmlns="http://www.w3.org/2000/svg">
<path d="M37.1729 8.95605H31.625V24H27.1689V8.95605H21.7227V5.51562H37.1729V8.95605ZM35.6875 17.0049C35.6875 15.6338 35.9541 14.415 36.4873 13.3486C37.0205 12.2738 37.7865 11.4486 38.7852 10.873C39.7839 10.2975 40.9561 10.0098 42.3018 10.0098C44.3584 10.0098 45.9792 10.6488 47.1641 11.9268C48.349 13.1963 48.9414 14.9271 48.9414 17.1191V17.2715C48.9414 19.4128 48.3447 21.1139 47.1514 22.375C45.9665 23.6276 44.3584 24.2539 42.3271 24.2539C40.3721 24.2539 38.8021 23.6699 37.6172 22.502C36.4323 21.3255 35.7933 19.7344 35.7002 17.7285L35.6875 17.0049ZM39.9658 17.2715C39.9658 18.541 40.1647 19.472 40.5625 20.0645C40.9603 20.6569 41.5485 20.9531 42.3271 20.9531C43.8506 20.9531 44.6292 19.7809 44.6631 17.4365V17.0049C44.6631 14.542 43.876 13.3105 42.3018 13.3105C40.8714 13.3105 40.097 14.3727 39.9785 16.4971L39.9658 17.2715ZM59.1865 17.6904H51.5566V14.377H59.1865V17.6904ZM62.7285 24V5.51562H68.6826C70.3161 5.51562 71.7845 5.88802 73.0879 6.63281C74.3913 7.36914 75.4069 8.41439 76.1348 9.76855C76.8711 11.1143 77.2435 12.625 77.252 14.3008V15.1514C77.252 16.8441 76.8923 18.3633 76.1729 19.709C75.4619 21.0462 74.4548 22.0957 73.1514 22.8574C71.8564 23.6107 70.4092 23.9915 68.8096 24H62.7285ZM67.1846 8.95605V20.5723H68.7334C70.0114 20.5723 70.9932 20.1195 71.6787 19.2139C72.3643 18.2998 72.707 16.9456 72.707 15.1514V14.3516C72.707 12.5658 72.3643 11.2201 71.6787 10.3145C70.9932 9.40885 69.9945 8.95605 68.6826 8.95605H67.1846ZM78.8008 17.0049C78.8008 15.6338 79.0674 14.415 79.6006 13.3486C80.1338 12.2738 80.8997 11.4486 81.8984 10.873C82.8971 10.2975 84.0693 10.0098 85.415 10.0098C87.4717 10.0098 89.0924 10.6488 90.2773 11.9268C91.4622 13.1963 92.0547 14.9271 92.0547 17.1191V17.2715C92.0547 19.4128 91.458 21.1139 90.2646 22.375C89.0798 23.6276 87.4717 24.2539 85.4404 24.2539C83.4854 24.2539 81.9154 23.6699 80.7305 22.502C79.5456 21.3255 78.9066 19.7344 78.8135 17.7285L78.8008 17.0049ZM83.0791 17.2715C83.0791 18.541 83.278 19.472 83.6758 20.0645C84.0736 20.6569 84.6618 20.9531 85.4404 20.9531C86.9639 20.9531 87.7425 19.7809 87.7764 17.4365V17.0049C87.7764 14.542 86.9893 13.3105 85.415 13.3105C83.9847 13.3105 83.2103 14.3727 83.0918 16.4971L83.0791 17.2715ZM105.067 20.5723H112.824V24H100.611V5.51562H105.067V20.5723ZM119.02 24H114.729V10.2637H119.02V24ZM114.475 6.72168C114.475 6.1123 114.695 5.61296 115.135 5.22363C115.575 4.83431 116.146 4.63965 116.849 4.63965C117.551 4.63965 118.122 4.83431 118.562 5.22363C119.003 5.61296 119.223 6.1123 119.223 6.72168C119.223 7.33105 119.003 7.8304 118.562 8.21973C118.122 8.60905 117.551 8.80371 116.849 8.80371C116.146 8.80371 115.575 8.60905 115.135 8.21973C114.695 7.8304 114.475 7.33105 114.475 6.72168ZM128.858 20.1406C128.858 19.7767 128.668 19.4847 128.287 19.2646C127.906 19.0446 127.183 18.8161 126.116 18.5791C125.05 18.3421 124.17 18.0332 123.476 17.6523C122.782 17.263 122.253 16.7933 121.889 16.2432C121.525 15.693 121.343 15.0625 121.343 14.3516C121.343 13.0905 121.863 12.0537 122.904 11.2412C123.945 10.4202 125.308 10.0098 126.992 10.0098C128.803 10.0098 130.259 10.4202 131.359 11.2412C132.46 12.0622 133.01 13.1413 133.01 14.4785H128.719C128.719 13.3783 128.139 12.8281 126.979 12.8281C126.531 12.8281 126.154 12.9551 125.85 13.209C125.545 13.4544 125.393 13.7633 125.393 14.1357C125.393 14.5166 125.579 14.8255 125.951 15.0625C126.324 15.2995 126.916 15.4941 127.729 15.6465C128.549 15.7988 129.269 15.9808 129.887 16.1924C131.952 16.9033 132.984 18.1771 132.984 20.0137C132.984 21.2663 132.426 22.2861 131.309 23.0732C130.2 23.8604 128.761 24.2539 126.992 24.2539C125.816 24.2539 124.766 24.0423 123.844 23.6191C122.921 23.196 122.202 22.6204 121.686 21.8926C121.169 21.1647 120.911 20.3988 120.911 19.5947H124.91C124.927 20.2295 125.139 20.695 125.545 20.9912C125.951 21.279 126.472 21.4229 127.106 21.4229C127.69 21.4229 128.126 21.3044 128.414 21.0674C128.71 20.8304 128.858 20.5215 128.858 20.1406ZM139.979 6.84863V10.2637H142.239V13.2344H139.979V19.5186C139.979 20.0348 140.073 20.3945 140.259 20.5977C140.445 20.8008 140.813 20.9023 141.363 20.9023C141.786 20.9023 142.142 20.877 142.43 20.8262V23.8857C141.66 24.1312 140.855 24.2539 140.018 24.2539C138.545 24.2539 137.457 23.9069 136.755 23.2129C136.052 22.5189 135.701 21.4652 135.701 20.0518V13.2344H133.949V10.2637H135.701V6.84863H139.979Z" fill="black"/>
</svg>
